<?xml version="1.0"?>
<VTKFile type="PolyData" version="0.1" byte_order="LittleEndian">
  <PolyData>
    <Piece NumberOfPoints="24" NumberOfVerts="0" NumberOfLines="1" NumberOfStrips="0" NumberOfPolys="0">
      <Points>
        <DataArray type="Float64" NumberOfComponents="3" format="ascii">
          0.0 4.63350449e+00 0.0 1.0 3.96462457e+00 0.0 2.0 1.98364504e+01 0.0 3.0 1.35840395e+01 0.0 4.0 5.03677602e+00 0.0 5.0 4.24012406e+00 0.0 6.0 3.75143649e+00 0.0 7.0 3.84860066e+00 0.0 8.0 4.13093137e+00 0.0 9.0 4.11737775e+00 0.0 10.0 4.14254312e+00 0.0 11.0 4.77678365e+00 0.0 12.0 4.22834167e+00 0.0 13.0 3.90432136e+00 0.0 14.0 3.81461896e+00 0.0 15.0 3.50314524e+00 0.0 16.0 4.53416066e+00 0.0 17.0 3.64710900e+00 0.0 18.0 2.99747427e+00 0.0 19.0 3.96008496e+00 0.0 20.0 4.43031744e+00 0.0 21.0 1.91731553e+01 0.0 22.0 3.24878122e+00 0.0 23.0 9.34517084e+00 0.0 
        </DataArray>
      </Points>
      <PointData Scalars="Drift">
        <DataArray type="Float64" Name="Drift" format="ascii">
          4.63350449e+00 3.96462457e+00 1.98364504e+01 1.35840395e+01 5.03677602e+00 4.24012406e+00 3.75143649e+00 3.84860066e+00 4.13093137e+00 4.11737775e+00 4.14254312e+00 4.77678365e+00 4.22834167e+00 3.90432136e+00 3.81461896e+00 3.50314524e+00 4.53416066e+00 3.64710900e+00 2.99747427e+00 3.96008496e+00 4.43031744e+00 1.91731553e+01 3.24878122e+00 9.34517084e+00
        </DataArray>
      </PointData>
      <Lines>
        <DataArray type="Int32" Name="connectivity" format="ascii">
          0 1 2 3 4 5 6 7 8 9 10 11 12 13 14 15 16 17 18 19 20 21 22 23
        </DataArray>
        <DataArray type="Int32" Name="offsets" format="ascii">
          24
        </DataArray>
      </Lines>
    </Piece>
  </PolyData>
</VTKFile>
