<?xml version="1.0"?>
<VTKFile type="PolyData" version="0.1" byte_order="LittleEndian">
  <PolyData>
    <Piece NumberOfPoints="24" NumberOfVerts="0" NumberOfLines="1" NumberOfStrips="0" NumberOfPolys="0">
      <Points>
        <DataArray type="Float64" NumberOfComponents="3" format="ascii">
          0.0 7.59089946e+00 0.0 1.0 5.14735154e+00 0.0 2.0 1.31463975e+01 0.0 3.0 1.34037258e+01 0.0 4.0 4.80399829e+00 0.0 5.0 4.40096560e+00 0.0 6.0 4.15592121e+00 0.0 7.0 3.73875490e+00 0.0 8.0 3.79872394e+00 0.0 9.0 3.82019323e+00 0.0 10.0 3.66010007e+00 0.0 11.0 4.05724276e+00 0.0 12.0 3.62763572e+00 0.0 13.0 3.40483930e+00 0.0 14.0 3.38874457e+00 0.0 15.0 3.57825557e+00 0.0 16.0 4.85816755e+00 0.0 17.0 3.26300943e+00 0.0 18.0 2.61954359e+00 0.0 19.0 3.00737346e+00 0.0 20.0 3.56915123e+00 0.0 21.0 1.45268097e+01 0.0 22.0 3.49866435e+00 0.0 23.0 6.91634903e+00 0.0 
        </DataArray>
      </Points>
      <PointData Scalars="Drift">
        <DataArray type="Float64" Name="Drift" format="ascii">
          7.59089946e+00 5.14735154e+00 1.31463975e+01 1.34037258e+01 4.80399829e+00 4.40096560e+00 4.15592121e+00 3.73875490e+00 3.79872394e+00 3.82019323e+00 3.66010007e+00 4.05724276e+00 3.62763572e+00 3.40483930e+00 3.38874457e+00 3.57825557e+00 4.85816755e+00 3.26300943e+00 2.61954359e+00 3.00737346e+00 3.56915123e+00 1.45268097e+01 3.49866435e+00 6.91634903e+00
        </DataArray>
      </PointData>
      <Lines>
        <DataArray type="Int32" Name="connectivity" format="ascii">
          0 1 2 3 4 5 6 7 8 9 10 11 12 13 14 15 16 17 18 19 20 21 22 23
        </DataArray>
        <DataArray type="Int32" Name="offsets" format="ascii">
          24
        </DataArray>
      </Lines>
    </Piece>
  </PolyData>
</VTKFile>
