<?xml version="1.0"?>
<VTKFile type="PolyData" version="0.1" byte_order="LittleEndian">
  <PolyData>
    <Piece NumberOfPoints="24" NumberOfVerts="0" NumberOfLines="1" NumberOfStrips="0" NumberOfPolys="0">
      <Points>
        <DataArray type="Float64" NumberOfComponents="3" format="ascii">
          0.0 4.49308874e+00 0.0 1.0 3.35302457e+00 0.0 2.0 1.42481331e+01 0.0 3.0 9.95377839e+00 0.0 4.0 3.25543944e+00 0.0 5.0 2.78739021e+00 0.0 6.0 2.12730288e+00 0.0 7.0 1.94430677e+00 0.0 8.0 2.00379393e+00 0.0 9.0 2.21434580e+00 0.0 10.0 1.87783645e+00 0.0 11.0 2.26177612e+00 0.0 12.0 1.96598510e+00 0.0 13.0 1.89015530e+00 0.0 14.0 2.08284982e+00 0.0 15.0 2.01598100e+00 0.0 16.0 3.01174649e+00 0.0 17.0 2.36742469e+00 0.0 18.0 1.86263308e+00 0.0 19.0 2.05346164e+00 0.0 20.0 2.23686258e+00 0.0 21.0 1.42437293e+01 0.0 22.0 1.90768207e+00 0.0 23.0 3.65939127e+00 0.0 
        </DataArray>
      </Points>
      <PointData Scalars="Drift">
        <DataArray type="Float64" Name="Drift" format="ascii">
          4.49308874e+00 3.35302457e+00 1.42481331e+01 9.95377839e+00 3.25543944e+00 2.78739021e+00 2.12730288e+00 1.94430677e+00 2.00379393e+00 2.21434580e+00 1.87783645e+00 2.26177612e+00 1.96598510e+00 1.89015530e+00 2.08284982e+00 2.01598100e+00 3.01174649e+00 2.36742469e+00 1.86263308e+00 2.05346164e+00 2.23686258e+00 1.42437293e+01 1.90768207e+00 3.65939127e+00
        </DataArray>
      </PointData>
      <Lines>
        <DataArray type="Int32" Name="connectivity" format="ascii">
          0 1 2 3 4 5 6 7 8 9 10 11 12 13 14 15 16 17 18 19 20 21 22 23
        </DataArray>
        <DataArray type="Int32" Name="offsets" format="ascii">
          24
        </DataArray>
      </Lines>
    </Piece>
  </PolyData>
</VTKFile>
