<?xml version="1.0"?>
<VTKFile type="PolyData" version="0.1" byte_order="LittleEndian">
  <PolyData>
    <Piece NumberOfPoints="24" NumberOfVerts="0" NumberOfLines="1" NumberOfStrips="0" NumberOfPolys="0">
      <Points>
        <DataArray type="Float64" NumberOfComponents="3" format="ascii">
          0.0 6.06366679e+00 0.0 1.0 5.15546430e+00 0.0 2.0 1.81028849e+01 0.0 3.0 1.29915048e+01 0.0 4.0 5.31060266e+00 0.0 5.0 4.67271536e+00 0.0 6.0 4.50008742e+00 0.0 7.0 3.96627866e+00 0.0 8.0 4.15123489e+00 0.0 9.0 4.20914664e+00 0.0 10.0 4.53478848e+00 0.0 11.0 4.86035289e+00 0.0 12.0 4.49653349e+00 0.0 13.0 3.94355739e+00 0.0 14.0 4.30622730e+00 0.0 15.0 3.95348714e+00 0.0 16.0 5.71948716e+00 0.0 17.0 4.60043694e+00 0.0 18.0 3.70551605e+00 0.0 19.0 4.37735911e+00 0.0 20.0 4.85553821e+00 0.0 21.0 1.73212493e+01 0.0 22.0 3.66620946e+00 0.0 23.0 1.00229793e+01 0.0 
        </DataArray>
      </Points>
      <PointData Scalars="Drift">
        <DataArray type="Float64" Name="Drift" format="ascii">
          6.06366679e+00 5.15546430e+00 1.81028849e+01 1.29915048e+01 5.31060266e+00 4.67271536e+00 4.50008742e+00 3.96627866e+00 4.15123489e+00 4.20914664e+00 4.53478848e+00 4.86035289e+00 4.49653349e+00 3.94355739e+00 4.30622730e+00 3.95348714e+00 5.71948716e+00 4.60043694e+00 3.70551605e+00 4.37735911e+00 4.85553821e+00 1.73212493e+01 3.66620946e+00 1.00229793e+01
        </DataArray>
      </PointData>
      <Lines>
        <DataArray type="Int32" Name="connectivity" format="ascii">
          0 1 2 3 4 5 6 7 8 9 10 11 12 13 14 15 16 17 18 19 20 21 22 23
        </DataArray>
        <DataArray type="Int32" Name="offsets" format="ascii">
          24
        </DataArray>
      </Lines>
    </Piece>
  </PolyData>
</VTKFile>
