<?xml version="1.0"?>
<VTKFile type="PolyData" version="0.1" byte_order="LittleEndian">
  <PolyData>
    <Piece NumberOfPoints="24" NumberOfVerts="0" NumberOfLines="1" NumberOfStrips="0" NumberOfPolys="0">
      <Points>
        <DataArray type="Float64" NumberOfComponents="3" format="ascii">
          0.0 7.89214671e+00 0.0 1.0 7.46541489e+00 0.0 2.0 1.72246461e+01 0.0 3.0 1.66250711e+01 0.0 4.0 6.98200792e+00 0.0 5.0 6.52334450e+00 0.0 6.0 5.67847503e+00 0.0 7.0 4.99713754e+00 0.0 8.0 4.74601012e+00 0.0 9.0 5.20151286e+00 0.0 10.0 4.91674440e+00 0.0 11.0 5.81879177e+00 0.0 12.0 4.99649047e+00 0.0 13.0 4.61622729e+00 0.0 14.0 4.49579578e+00 0.0 15.0 4.60735789e+00 0.0 16.0 5.21430351e+00 0.0 17.0 3.43992190e+00 0.0 18.0 2.73601143e+00 0.0 19.0 2.88562754e+00 0.0 20.0 3.09733052e+00 0.0 21.0 1.70388129e+01 0.0 22.0 2.82718507e+00 0.0 23.0 5.96426685e+00 0.0 
        </DataArray>
      </Points>
      <PointData Scalars="Drift">
        <DataArray type="Float64" Name="Drift" format="ascii">
          7.89214671e+00 7.46541489e+00 1.72246461e+01 1.66250711e+01 6.98200792e+00 6.52334450e+00 5.67847503e+00 4.99713754e+00 4.74601012e+00 5.20151286e+00 4.91674440e+00 5.81879177e+00 4.99649047e+00 4.61622729e+00 4.49579578e+00 4.60735789e+00 5.21430351e+00 3.43992190e+00 2.73601143e+00 2.88562754e+00 3.09733052e+00 1.70388129e+01 2.82718507e+00 5.96426685e+00
        </DataArray>
      </PointData>
      <Lines>
        <DataArray type="Int32" Name="connectivity" format="ascii">
          0 1 2 3 4 5 6 7 8 9 10 11 12 13 14 15 16 17 18 19 20 21 22 23
        </DataArray>
        <DataArray type="Int32" Name="offsets" format="ascii">
          24
        </DataArray>
      </Lines>
    </Piece>
  </PolyData>
</VTKFile>
