<?xml version="1.0"?>
<VTKFile type="PolyData" version="0.1" byte_order="LittleEndian">
  <PolyData>
    <Piece NumberOfPoints="24" NumberOfVerts="0" NumberOfLines="1" NumberOfStrips="0" NumberOfPolys="0">
      <Points>
        <DataArray type="Float64" NumberOfComponents="3" format="ascii">
          0.0 7.92336672e+00 0.0 1.0 5.81899060e+00 0.0 2.0 2.79751348e+01 0.0 3.0 2.38261971e+01 0.0 4.0 5.06837243e+00 0.0 5.0 4.68440537e+00 0.0 6.0 4.24494857e+00 0.0 7.0 3.88883012e+00 0.0 8.0 4.18754381e+00 0.0 9.0 4.11275526e+00 0.0 10.0 3.69316178e+00 0.0 11.0 4.40338404e+00 0.0 12.0 3.82247498e+00 0.0 13.0 3.62331483e+00 0.0 14.0 3.62880179e+00 0.0 15.0 4.11646793e+00 0.0 16.0 5.44849095e+00 0.0 17.0 3.44864044e+00 0.0 18.0 2.81073750e+00 0.0 19.0 3.30188847e+00 0.0 20.0 3.62316091e+00 0.0 21.0 3.05965243e+01 0.0 22.0 3.83400642e+00 0.0 23.0 9.14843697e+00 0.0 
        </DataArray>
      </Points>
      <PointData Scalars="Drift">
        <DataArray type="Float64" Name="Drift" format="ascii">
          7.92336672e+00 5.81899060e+00 2.79751348e+01 2.38261971e+01 5.06837243e+00 4.68440537e+00 4.24494857e+00 3.88883012e+00 4.18754381e+00 4.11275526e+00 3.69316178e+00 4.40338404e+00 3.82247498e+00 3.62331483e+00 3.62880179e+00 4.11646793e+00 5.44849095e+00 3.44864044e+00 2.81073750e+00 3.30188847e+00 3.62316091e+00 3.05965243e+01 3.83400642e+00 9.14843697e+00
        </DataArray>
      </PointData>
      <Lines>
        <DataArray type="Int32" Name="connectivity" format="ascii">
          0 1 2 3 4 5 6 7 8 9 10 11 12 13 14 15 16 17 18 19 20 21 22 23
        </DataArray>
        <DataArray type="Int32" Name="offsets" format="ascii">
          24
        </DataArray>
      </Lines>
    </Piece>
  </PolyData>
</VTKFile>
