<?xml version="1.0"?>
<VTKFile type="PolyData" version="0.1" byte_order="LittleEndian">
  <PolyData>
    <Piece NumberOfPoints="24" NumberOfVerts="0" NumberOfLines="1" NumberOfStrips="0" NumberOfPolys="0">
      <Points>
        <DataArray type="Float64" NumberOfComponents="3" format="ascii">
          0.0 7.45270894e+00 0.0 1.0 5.66124608e+00 0.0 2.0 1.75148063e+01 0.0 3.0 1.31371484e+01 0.0 4.0 5.18121661e+00 0.0 5.0 5.05078784e+00 0.0 6.0 4.51819012e+00 0.0 7.0 4.37313769e+00 0.0 8.0 3.81497295e+00 0.0 9.0 3.65177151e+00 0.0 10.0 3.45952296e+00 0.0 11.0 4.05874554e+00 0.0 12.0 3.34445953e+00 0.0 13.0 3.53385356e+00 0.0 14.0 3.53823554e+00 0.0 15.0 3.32835907e+00 0.0 16.0 4.53453741e+00 0.0 17.0 3.07678026e+00 0.0 18.0 2.45570020e+00 0.0 19.0 3.06398300e+00 0.0 20.0 3.45115676e+00 0.0 21.0 1.72528164e+01 0.0 22.0 3.61335460e+00 0.0 23.0 7.41536539e+00 0.0 
        </DataArray>
      </Points>
      <PointData Scalars="Drift">
        <DataArray type="Float64" Name="Drift" format="ascii">
          7.45270894e+00 5.66124608e+00 1.75148063e+01 1.31371484e+01 5.18121661e+00 5.05078784e+00 4.51819012e+00 4.37313769e+00 3.81497295e+00 3.65177151e+00 3.45952296e+00 4.05874554e+00 3.34445953e+00 3.53385356e+00 3.53823554e+00 3.32835907e+00 4.53453741e+00 3.07678026e+00 2.45570020e+00 3.06398300e+00 3.45115676e+00 1.72528164e+01 3.61335460e+00 7.41536539e+00
        </DataArray>
      </PointData>
      <Lines>
        <DataArray type="Int32" Name="connectivity" format="ascii">
          0 1 2 3 4 5 6 7 8 9 10 11 12 13 14 15 16 17 18 19 20 21 22 23
        </DataArray>
        <DataArray type="Int32" Name="offsets" format="ascii">
          24
        </DataArray>
      </Lines>
    </Piece>
  </PolyData>
</VTKFile>
