<?xml version="1.0"?>
<VTKFile type="PolyData" version="0.1" byte_order="LittleEndian">
  <PolyData>
    <Piece NumberOfPoints="24" NumberOfVerts="0" NumberOfLines="1" NumberOfStrips="0" NumberOfPolys="0">
      <Points>
        <DataArray type="Float64" NumberOfComponents="3" format="ascii">
          0.0 6.23905986e+00 0.0 1.0 5.07302605e+00 0.0 2.0 1.45874651e+01 0.0 3.0 1.38578445e+01 0.0 4.0 5.63975080e+00 0.0 5.0 5.25193243e+00 0.0 6.0 4.85390083e+00 0.0 7.0 4.20501483e+00 0.0 8.0 4.32102367e+00 0.0 9.0 4.61748160e+00 0.0 10.0 4.80598874e+00 0.0 11.0 5.53298667e+00 0.0 12.0 4.86061328e+00 0.0 13.0 4.26449666e+00 0.0 14.0 4.26622897e+00 0.0 15.0 4.12271112e+00 0.0 16.0 5.83396650e+00 0.0 17.0 4.81102139e+00 0.0 18.0 3.39904989e+00 0.0 19.0 3.95228780e+00 0.0 20.0 4.81268715e+00 0.0 21.0 1.52119775e+01 0.0 22.0 4.23398694e+00 0.0 23.0 9.22458700e+00 0.0 
        </DataArray>
      </Points>
      <PointData Scalars="Drift">
        <DataArray type="Float64" Name="Drift" format="ascii">
          6.23905986e+00 5.07302605e+00 1.45874651e+01 1.38578445e+01 5.63975080e+00 5.25193243e+00 4.85390083e+00 4.20501483e+00 4.32102367e+00 4.61748160e+00 4.80598874e+00 5.53298667e+00 4.86061328e+00 4.26449666e+00 4.26622897e+00 4.12271112e+00 5.83396650e+00 4.81102139e+00 3.39904989e+00 3.95228780e+00 4.81268715e+00 1.52119775e+01 4.23398694e+00 9.22458700e+00
        </DataArray>
      </PointData>
      <Lines>
        <DataArray type="Int32" Name="connectivity" format="ascii">
          0 1 2 3 4 5 6 7 8 9 10 11 12 13 14 15 16 17 18 19 20 21 22 23
        </DataArray>
        <DataArray type="Int32" Name="offsets" format="ascii">
          24
        </DataArray>
      </Lines>
    </Piece>
  </PolyData>
</VTKFile>
