<?xml version="1.0"?>
<VTKFile type="PolyData" version="0.1" byte_order="LittleEndian">
  <PolyData>
    <Piece NumberOfPoints="24" NumberOfVerts="0" NumberOfLines="1" NumberOfStrips="0" NumberOfPolys="0">
      <Points>
        <DataArray type="Float64" NumberOfComponents="3" format="ascii">
          0.0 8.05986735e+00 0.0 1.0 6.98091657e+00 0.0 2.0 2.01650328e+01 0.0 3.0 1.59894996e+01 0.0 4.0 6.73311876e+00 0.0 5.0 5.90731763e+00 0.0 6.0 5.19289779e+00 0.0 7.0 4.64409473e+00 0.0 8.0 4.68836347e+00 0.0 9.0 4.62386301e+00 0.0 10.0 4.66776440e+00 0.0 11.0 5.18770653e+00 0.0 12.0 4.89614624e+00 0.0 13.0 4.52631447e+00 0.0 14.0 4.71648746e+00 0.0 15.0 4.13809798e+00 0.0 16.0 6.17813366e+00 0.0 17.0 4.55732604e+00 0.0 18.0 3.69111230e+00 0.0 19.0 4.07802497e+00 0.0 20.0 4.39099473e+00 0.0 21.0 1.92429910e+01 0.0 22.0 3.75931489e+00 0.0 23.0 9.54446479e+00 0.0 
        </DataArray>
      </Points>
      <PointData Scalars="Drift">
        <DataArray type="Float64" Name="Drift" format="ascii">
          8.05986735e+00 6.98091657e+00 2.01650328e+01 1.59894996e+01 6.73311876e+00 5.90731763e+00 5.19289779e+00 4.64409473e+00 4.68836347e+00 4.62386301e+00 4.66776440e+00 5.18770653e+00 4.89614624e+00 4.52631447e+00 4.71648746e+00 4.13809798e+00 6.17813366e+00 4.55732604e+00 3.69111230e+00 4.07802497e+00 4.39099473e+00 1.92429910e+01 3.75931489e+00 9.54446479e+00
        </DataArray>
      </PointData>
      <Lines>
        <DataArray type="Int32" Name="connectivity" format="ascii">
          0 1 2 3 4 5 6 7 8 9 10 11 12 13 14 15 16 17 18 19 20 21 22 23
        </DataArray>
        <DataArray type="Int32" Name="offsets" format="ascii">
          24
        </DataArray>
      </Lines>
    </Piece>
  </PolyData>
</VTKFile>
