<?xml version="1.0"?>
<VTKFile type="PolyData" version="0.1" byte_order="LittleEndian">
  <PolyData>
    <Piece NumberOfPoints="24" NumberOfVerts="0" NumberOfLines="1" NumberOfStrips="0" NumberOfPolys="0">
      <Points>
        <DataArray type="Float64" NumberOfComponents="3" format="ascii">
          0.0 5.00348171e+00 0.0 1.0 4.40430432e+00 0.0 2.0 1.81895106e+01 0.0 3.0 1.38637764e+01 0.0 4.0 3.66875798e+00 0.0 5.0 2.87630208e+00 0.0 6.0 2.62319911e+00 0.0 7.0 2.28992534e+00 0.0 8.0 2.17870294e+00 0.0 9.0 2.07618333e+00 0.0 10.0 2.05927430e+00 0.0 11.0 2.35488614e+00 0.0 12.0 1.95776573e+00 0.0 13.0 1.91321030e+00 0.0 14.0 2.08610474e+00 0.0 15.0 2.02287601e+00 0.0 16.0 2.80694529e+00 0.0 17.0 2.28298807e+00 0.0 18.0 1.82331376e+00 0.0 19.0 1.97664877e+00 0.0 20.0 2.17264368e+00 0.0 21.0 1.90329837e+01 0.0 22.0 2.38124769e+00 0.0 23.0 4.60358887e+00 0.0 
        </DataArray>
      </Points>
      <PointData Scalars="Drift">
        <DataArray type="Float64" Name="Drift" format="ascii">
          5.00348171e+00 4.40430432e+00 1.81895106e+01 1.38637764e+01 3.66875798e+00 2.87630208e+00 2.62319911e+00 2.28992534e+00 2.17870294e+00 2.07618333e+00 2.05927430e+00 2.35488614e+00 1.95776573e+00 1.91321030e+00 2.08610474e+00 2.02287601e+00 2.80694529e+00 2.28298807e+00 1.82331376e+00 1.97664877e+00 2.17264368e+00 1.90329837e+01 2.38124769e+00 4.60358887e+00
        </DataArray>
      </PointData>
      <Lines>
        <DataArray type="Int32" Name="connectivity" format="ascii">
          0 1 2 3 4 5 6 7 8 9 10 11 12 13 14 15 16 17 18 19 20 21 22 23
        </DataArray>
        <DataArray type="Int32" Name="offsets" format="ascii">
          24
        </DataArray>
      </Lines>
    </Piece>
  </PolyData>
</VTKFile>
