<?xml version="1.0"?>
<VTKFile type="PolyData" version="0.1" byte_order="LittleEndian">
  <PolyData>
    <Piece NumberOfPoints="24" NumberOfVerts="0" NumberOfLines="1" NumberOfStrips="0" NumberOfPolys="0">
      <Points>
        <DataArray type="Float64" NumberOfComponents="3" format="ascii">
          0.0 7.98457519e+00 0.0 1.0 6.78785574e+00 0.0 2.0 1.26013802e+01 0.0 3.0 1.01044436e+01 0.0 4.0 7.13110860e+00 0.0 5.0 6.56276113e+00 0.0 6.0 5.76119980e+00 0.0 7.0 4.94683686e+00 0.0 8.0 5.15478898e+00 0.0 9.0 5.23206456e+00 0.0 10.0 4.18105200e+00 0.0 11.0 4.94050319e+00 0.0 12.0 4.20192567e+00 0.0 13.0 3.98348459e+00 0.0 14.0 4.03344663e+00 0.0 15.0 3.55147928e+00 0.0 16.0 4.85788151e+00 0.0 17.0 3.58983244e+00 0.0 18.0 2.89995458e+00 0.0 19.0 3.58080093e+00 0.0 20.0 4.58407012e+00 0.0 21.0 9.47910407e+00 0.0 22.0 4.09646870e+00 0.0 23.0 9.48175897e+00 0.0 
        </DataArray>
      </Points>
      <PointData Scalars="Drift">
        <DataArray type="Float64" Name="Drift" format="ascii">
          7.98457519e+00 6.78785574e+00 1.26013802e+01 1.01044436e+01 7.13110860e+00 6.56276113e+00 5.76119980e+00 4.94683686e+00 5.15478898e+00 5.23206456e+00 4.18105200e+00 4.94050319e+00 4.20192567e+00 3.98348459e+00 4.03344663e+00 3.55147928e+00 4.85788151e+00 3.58983244e+00 2.89995458e+00 3.58080093e+00 4.58407012e+00 9.47910407e+00 4.09646870e+00 9.48175897e+00
        </DataArray>
      </PointData>
      <Lines>
        <DataArray type="Int32" Name="connectivity" format="ascii">
          0 1 2 3 4 5 6 7 8 9 10 11 12 13 14 15 16 17 18 19 20 21 22 23
        </DataArray>
        <DataArray type="Int32" Name="offsets" format="ascii">
          24
        </DataArray>
      </Lines>
    </Piece>
  </PolyData>
</VTKFile>
