<?xml version="1.0"?>
<VTKFile type="PolyData" version="0.1" byte_order="LittleEndian">
  <PolyData>
    <Piece NumberOfPoints="24" NumberOfVerts="0" NumberOfLines="1" NumberOfStrips="0" NumberOfPolys="0">
      <Points>
        <DataArray type="Float64" NumberOfComponents="3" format="ascii">
          0.0 1.04292820e+01 0.0 1.0 7.59770870e+00 0.0 2.0 3.68937899e+01 0.0 3.0 3.54647922e+01 0.0 4.0 7.92683841e+00 0.0 5.0 6.57259762e+00 0.0 6.0 6.25814775e+00 0.0 7.0 5.42522681e+00 0.0 8.0 5.86824419e+00 0.0 9.0 5.45066360e+00 0.0 10.0 5.18942660e+00 0.0 11.0 5.90659449e+00 0.0 12.0 5.71377363e+00 0.0 13.0 4.58445943e+00 0.0 14.0 4.40731863e+00 0.0 15.0 4.70542898e+00 0.0 16.0 5.72554795e+00 0.0 17.0 4.33286685e+00 0.0 18.0 3.34700964e+00 0.0 19.0 4.11409014e+00 0.0 20.0 4.39929548e+00 0.0 21.0 4.20068324e+01 0.0 22.0 4.44592087e+00 0.0 23.0 9.38463272e+00 0.0 
        </DataArray>
      </Points>
      <PointData Scalars="Drift">
        <DataArray type="Float64" Name="Drift" format="ascii">
          1.04292820e+01 7.59770870e+00 3.68937899e+01 3.54647922e+01 7.92683841e+00 6.57259762e+00 6.25814775e+00 5.42522681e+00 5.86824419e+00 5.45066360e+00 5.18942660e+00 5.90659449e+00 5.71377363e+00 4.58445943e+00 4.40731863e+00 4.70542898e+00 5.72554795e+00 4.33286685e+00 3.34700964e+00 4.11409014e+00 4.39929548e+00 4.20068324e+01 4.44592087e+00 9.38463272e+00
        </DataArray>
      </PointData>
      <Lines>
        <DataArray type="Int32" Name="connectivity" format="ascii">
          0 1 2 3 4 5 6 7 8 9 10 11 12 13 14 15 16 17 18 19 20 21 22 23
        </DataArray>
        <DataArray type="Int32" Name="offsets" format="ascii">
          24
        </DataArray>
      </Lines>
    </Piece>
  </PolyData>
</VTKFile>
