<?xml version="1.0"?>
<VTKFile type="PolyData" version="0.1" byte_order="LittleEndian">
  <PolyData>
    <Piece NumberOfPoints="24" NumberOfVerts="0" NumberOfLines="1" NumberOfStrips="0" NumberOfPolys="0">
      <Points>
        <DataArray type="Float64" NumberOfComponents="3" format="ascii">
          0.0 1.24846294e+01 0.0 1.0 9.20920687e+00 0.0 2.0 1.49020168e+01 0.0 3.0 1.24800981e+01 0.0 4.0 8.52746454e+00 0.0 5.0 6.78015897e+00 0.0 6.0 5.84914157e+00 0.0 7.0 5.94455023e+00 0.0 8.0 5.67753125e+00 0.0 9.0 5.35264689e+00 0.0 10.0 4.63745242e+00 0.0 11.0 5.07904155e+00 0.0 12.0 4.26366088e+00 0.0 13.0 3.85227319e+00 0.0 14.0 3.79539360e+00 0.0 15.0 3.99035312e+00 0.0 16.0 5.08150971e+00 0.0 17.0 3.63987112e+00 0.0 18.0 2.80064213e+00 0.0 19.0 3.24348031e+00 0.0 20.0 3.64838395e+00 0.0 21.0 1.14843859e+01 0.0 22.0 4.10562789e+00 0.0 23.0 8.06558602e+00 0.0 
        </DataArray>
      </Points>
      <PointData Scalars="Drift">
        <DataArray type="Float64" Name="Drift" format="ascii">
          1.24846294e+01 9.20920687e+00 1.49020168e+01 1.24800981e+01 8.52746454e+00 6.78015897e+00 5.84914157e+00 5.94455023e+00 5.67753125e+00 5.35264689e+00 4.63745242e+00 5.07904155e+00 4.26366088e+00 3.85227319e+00 3.79539360e+00 3.99035312e+00 5.08150971e+00 3.63987112e+00 2.80064213e+00 3.24348031e+00 3.64838395e+00 1.14843859e+01 4.10562789e+00 8.06558602e+00
        </DataArray>
      </PointData>
      <Lines>
        <DataArray type="Int32" Name="connectivity" format="ascii">
          0 1 2 3 4 5 6 7 8 9 10 11 12 13 14 15 16 17 18 19 20 21 22 23
        </DataArray>
        <DataArray type="Int32" Name="offsets" format="ascii">
          24
        </DataArray>
      </Lines>
    </Piece>
  </PolyData>
</VTKFile>
