<?xml version="1.0"?>
<VTKFile type="PolyData" version="0.1" byte_order="LittleEndian">
  <PolyData>
    <Piece NumberOfPoints="24" NumberOfVerts="0" NumberOfLines="1" NumberOfStrips="0" NumberOfPolys="0">
      <Points>
        <DataArray type="Float64" NumberOfComponents="3" format="ascii">
          0.0 6.79182717e+00 0.0 1.0 5.69132213e+00 0.0 2.0 1.59764150e+01 0.0 3.0 1.19713814e+01 0.0 4.0 6.22591820e+00 0.0 5.0 5.46479539e+00 0.0 6.0 4.69063342e+00 0.0 7.0 4.59510304e+00 0.0 8.0 4.61776781e+00 0.0 9.0 4.47555084e+00 0.0 10.0 4.58147861e+00 0.0 11.0 5.07017979e+00 0.0 12.0 4.73049056e+00 0.0 13.0 4.08089855e+00 0.0 14.0 4.41583219e+00 0.0 15.0 3.89469645e+00 0.0 16.0 5.38501293e+00 0.0 17.0 4.32353799e+00 0.0 18.0 3.55481060e+00 0.0 19.0 4.07570977e+00 0.0 20.0 4.46210390e+00 0.0 21.0 1.47496442e+01 0.0 22.0 3.75566049e+00 0.0 23.0 9.00368844e+00 0.0 
        </DataArray>
      </Points>
      <PointData Scalars="Drift">
        <DataArray type="Float64" Name="Drift" format="ascii">
          6.79182717e+00 5.69132213e+00 1.59764150e+01 1.19713814e+01 6.22591820e+00 5.46479539e+00 4.69063342e+00 4.59510304e+00 4.61776781e+00 4.47555084e+00 4.58147861e+00 5.07017979e+00 4.73049056e+00 4.08089855e+00 4.41583219e+00 3.89469645e+00 5.38501293e+00 4.32353799e+00 3.55481060e+00 4.07570977e+00 4.46210390e+00 1.47496442e+01 3.75566049e+00 9.00368844e+00
        </DataArray>
      </PointData>
      <Lines>
        <DataArray type="Int32" Name="connectivity" format="ascii">
          0 1 2 3 4 5 6 7 8 9 10 11 12 13 14 15 16 17 18 19 20 21 22 23
        </DataArray>
        <DataArray type="Int32" Name="offsets" format="ascii">
          24
        </DataArray>
      </Lines>
    </Piece>
  </PolyData>
</VTKFile>
