<?xml version="1.0"?>
<VTKFile type="PolyData" version="0.1" byte_order="LittleEndian">
  <PolyData>
    <Piece NumberOfPoints="24" NumberOfVerts="0" NumberOfLines="1" NumberOfStrips="0" NumberOfPolys="0">
      <Points>
        <DataArray type="Float64" NumberOfComponents="3" format="ascii">
          0.0 5.20894248e+00 0.0 1.0 4.36994616e+00 0.0 2.0 1.45680372e+01 0.0 3.0 1.03014541e+01 0.0 4.0 4.14977500e+00 0.0 5.0 4.19525218e+00 0.0 6.0 3.39780175e+00 0.0 7.0 3.11119811e+00 0.0 8.0 2.94629827e+00 0.0 9.0 3.16299619e+00 0.0 10.0 3.17580851e+00 0.0 11.0 3.50873304e+00 0.0 12.0 3.15847923e+00 0.0 13.0 2.91909840e+00 0.0 14.0 3.25222461e+00 0.0 15.0 3.16146317e+00 0.0 16.0 4.23392023e+00 0.0 17.0 3.11877697e+00 0.0 18.0 2.61398535e+00 0.0 19.0 2.83080139e+00 0.0 20.0 3.09860288e+00 0.0 21.0 1.36638236e+01 0.0 22.0 2.73544824e+00 0.0 23.0 6.00005414e+00 0.0 
        </DataArray>
      </Points>
      <PointData Scalars="Drift">
        <DataArray type="Float64" Name="Drift" format="ascii">
          5.20894248e+00 4.36994616e+00 1.45680372e+01 1.03014541e+01 4.14977500e+00 4.19525218e+00 3.39780175e+00 3.11119811e+00 2.94629827e+00 3.16299619e+00 3.17580851e+00 3.50873304e+00 3.15847923e+00 2.91909840e+00 3.25222461e+00 3.16146317e+00 4.23392023e+00 3.11877697e+00 2.61398535e+00 2.83080139e+00 3.09860288e+00 1.36638236e+01 2.73544824e+00 6.00005414e+00
        </DataArray>
      </PointData>
      <Lines>
        <DataArray type="Int32" Name="connectivity" format="ascii">
          0 1 2 3 4 5 6 7 8 9 10 11 12 13 14 15 16 17 18 19 20 21 22 23
        </DataArray>
        <DataArray type="Int32" Name="offsets" format="ascii">
          24
        </DataArray>
      </Lines>
    </Piece>
  </PolyData>
</VTKFile>
