<?xml version="1.0"?>
<VTKFile type="PolyData" version="0.1" byte_order="LittleEndian">
  <PolyData>
    <Piece NumberOfPoints="24" NumberOfVerts="0" NumberOfLines="1" NumberOfStrips="0" NumberOfPolys="0">
      <Points>
        <DataArray type="Float64" NumberOfComponents="3" format="ascii">
          0.0 5.41839528e+00 0.0 1.0 5.23219504e+00 0.0 2.0 1.61426623e+01 0.0 3.0 1.18632601e+01 0.0 4.0 4.28153914e+00 0.0 5.0 3.55310105e+00 0.0 6.0 3.52063914e+00 0.0 7.0 3.07680721e+00 0.0 8.0 3.00324234e+00 0.0 9.0 2.86174057e+00 0.0 10.0 2.87612209e+00 0.0 11.0 3.03234489e+00 0.0 12.0 2.70445210e+00 0.0 13.0 2.64295092e+00 0.0 14.0 3.05011651e+00 0.0 15.0 2.95983275e+00 0.0 16.0 3.46755773e+00 0.0 17.0 2.82411364e+00 0.0 18.0 2.51502179e+00 0.0 19.0 2.70615999e+00 0.0 20.0 3.05617135e+00 0.0 21.0 1.52246966e+01 0.0 22.0 2.68322851e+00 0.0 23.0 4.52597940e+00 0.0 
        </DataArray>
      </Points>
      <PointData Scalars="Drift">
        <DataArray type="Float64" Name="Drift" format="ascii">
          5.41839528e+00 5.23219504e+00 1.61426623e+01 1.18632601e+01 4.28153914e+00 3.55310105e+00 3.52063914e+00 3.07680721e+00 3.00324234e+00 2.86174057e+00 2.87612209e+00 3.03234489e+00 2.70445210e+00 2.64295092e+00 3.05011651e+00 2.95983275e+00 3.46755773e+00 2.82411364e+00 2.51502179e+00 2.70615999e+00 3.05617135e+00 1.52246966e+01 2.68322851e+00 4.52597940e+00
        </DataArray>
      </PointData>
      <Lines>
        <DataArray type="Int32" Name="connectivity" format="ascii">
          0 1 2 3 4 5 6 7 8 9 10 11 12 13 14 15 16 17 18 19 20 21 22 23
        </DataArray>
        <DataArray type="Int32" Name="offsets" format="ascii">
          24
        </DataArray>
      </Lines>
    </Piece>
  </PolyData>
</VTKFile>
