<?xml version="1.0"?>
<VTKFile type="PolyData" version="0.1" byte_order="LittleEndian">
  <PolyData>
    <Piece NumberOfPoints="24" NumberOfVerts="0" NumberOfLines="1" NumberOfStrips="0" NumberOfPolys="0">
      <Points>
        <DataArray type="Float64" NumberOfComponents="3" format="ascii">
          0.0 5.36200491e+00 0.0 1.0 4.91086556e+00 0.0 2.0 1.62461585e+01 0.0 3.0 1.30882605e+01 0.0 4.0 5.05339061e+00 0.0 5.0 4.59626216e+00 0.0 6.0 3.83821786e+00 0.0 7.0 3.46505262e+00 0.0 8.0 3.57511351e+00 0.0 9.0 3.62881877e+00 0.0 10.0 3.54027445e+00 0.0 11.0 3.91318876e+00 0.0 12.0 3.43597472e+00 0.0 13.0 3.20590448e+00 0.0 14.0 3.38763492e+00 0.0 15.0 3.15537392e+00 0.0 16.0 4.26832104e+00 0.0 17.0 3.10111120e+00 0.0 18.0 2.59060502e+00 0.0 19.0 3.09065891e+00 0.0 20.0 3.30498211e+00 0.0 21.0 1.69102261e+01 0.0 22.0 3.24309035e+00 0.0 23.0 7.13353298e+00 0.0 
        </DataArray>
      </Points>
      <PointData Scalars="Drift">
        <DataArray type="Float64" Name="Drift" format="ascii">
          5.36200491e+00 4.91086556e+00 1.62461585e+01 1.30882605e+01 5.05339061e+00 4.59626216e+00 3.83821786e+00 3.46505262e+00 3.57511351e+00 3.62881877e+00 3.54027445e+00 3.91318876e+00 3.43597472e+00 3.20590448e+00 3.38763492e+00 3.15537392e+00 4.26832104e+00 3.10111120e+00 2.59060502e+00 3.09065891e+00 3.30498211e+00 1.69102261e+01 3.24309035e+00 7.13353298e+00
        </DataArray>
      </PointData>
      <Lines>
        <DataArray type="Int32" Name="connectivity" format="ascii">
          0 1 2 3 4 5 6 7 8 9 10 11 12 13 14 15 16 17 18 19 20 21 22 23
        </DataArray>
        <DataArray type="Int32" Name="offsets" format="ascii">
          24
        </DataArray>
      </Lines>
    </Piece>
  </PolyData>
</VTKFile>
