<?xml version="1.0"?>
<VTKFile type="PolyData" version="0.1" byte_order="LittleEndian">
  <PolyData>
    <Piece NumberOfPoints="24" NumberOfVerts="0" NumberOfLines="1" NumberOfStrips="0" NumberOfPolys="0">
      <Points>
        <DataArray type="Float64" NumberOfComponents="3" format="ascii">
          0.0 1.06359283e+01 0.0 1.0 8.61622176e+00 0.0 2.0 2.27735558e+01 0.0 3.0 1.83661315e+01 0.0 4.0 6.67470551e+00 0.0 5.0 5.74475459e+00 0.0 6.0 4.39679176e+00 0.0 7.0 3.66667715e+00 0.0 8.0 3.56530775e+00 0.0 9.0 3.39188958e+00 0.0 10.0 3.35485249e+00 0.0 11.0 3.74516496e+00 0.0 12.0 3.35263071e+00 0.0 13.0 3.40780301e+00 0.0 14.0 3.37442915e+00 0.0 15.0 3.38748612e+00 0.0 16.0 4.72509571e+00 0.0 17.0 3.58056243e+00 0.0 18.0 2.79898222e+00 0.0 19.0 3.32876917e+00 0.0 20.0 3.51047912e+00 0.0 21.0 2.18407172e+01 0.0 22.0 3.48727457e+00 0.0 23.0 6.25465221e+00 0.0 
        </DataArray>
      </Points>
      <PointData Scalars="Drift">
        <DataArray type="Float64" Name="Drift" format="ascii">
          1.06359283e+01 8.61622176e+00 2.27735558e+01 1.83661315e+01 6.67470551e+00 5.74475459e+00 4.39679176e+00 3.66667715e+00 3.56530775e+00 3.39188958e+00 3.35485249e+00 3.74516496e+00 3.35263071e+00 3.40780301e+00 3.37442915e+00 3.38748612e+00 4.72509571e+00 3.58056243e+00 2.79898222e+00 3.32876917e+00 3.51047912e+00 2.18407172e+01 3.48727457e+00 6.25465221e+00
        </DataArray>
      </PointData>
      <Lines>
        <DataArray type="Int32" Name="connectivity" format="ascii">
          0 1 2 3 4 5 6 7 8 9 10 11 12 13 14 15 16 17 18 19 20 21 22 23
        </DataArray>
        <DataArray type="Int32" Name="offsets" format="ascii">
          24
        </DataArray>
      </Lines>
    </Piece>
  </PolyData>
</VTKFile>
