<?xml version="1.0"?>
<VTKFile type="PolyData" version="0.1" byte_order="LittleEndian">
  <PolyData>
    <Piece NumberOfPoints="24" NumberOfVerts="0" NumberOfLines="1" NumberOfStrips="0" NumberOfPolys="0">
      <Points>
        <DataArray type="Float64" NumberOfComponents="3" format="ascii">
          0.0 7.02705480e+00 0.0 1.0 5.89790784e+00 0.0 2.0 2.06336709e+01 0.0 3.0 1.60708864e+01 0.0 4.0 6.08990622e+00 0.0 5.0 5.50772882e+00 0.0 6.0 4.77739504e+00 0.0 7.0 4.22079926e+00 0.0 8.0 4.28435954e+00 0.0 9.0 4.16246233e+00 0.0 10.0 4.44993271e+00 0.0 11.0 5.18011254e+00 0.0 12.0 4.62714731e+00 0.0 13.0 4.27786546e+00 0.0 14.0 4.65044961e+00 0.0 15.0 4.01402198e+00 0.0 16.0 5.66964916e+00 0.0 17.0 4.07955427e+00 0.0 18.0 3.41681013e+00 0.0 19.0 4.07952528e+00 0.0 20.0 4.78019283e+00 0.0 21.0 2.03948136e+01 0.0 22.0 4.50205398e+00 0.0 23.0 8.11378982e+00 0.0 
        </DataArray>
      </Points>
      <PointData Scalars="Drift">
        <DataArray type="Float64" Name="Drift" format="ascii">
          7.02705480e+00 5.89790784e+00 2.06336709e+01 1.60708864e+01 6.08990622e+00 5.50772882e+00 4.77739504e+00 4.22079926e+00 4.28435954e+00 4.16246233e+00 4.44993271e+00 5.18011254e+00 4.62714731e+00 4.27786546e+00 4.65044961e+00 4.01402198e+00 5.66964916e+00 4.07955427e+00 3.41681013e+00 4.07952528e+00 4.78019283e+00 2.03948136e+01 4.50205398e+00 8.11378982e+00
        </DataArray>
      </PointData>
      <Lines>
        <DataArray type="Int32" Name="connectivity" format="ascii">
          0 1 2 3 4 5 6 7 8 9 10 11 12 13 14 15 16 17 18 19 20 21 22 23
        </DataArray>
        <DataArray type="Int32" Name="offsets" format="ascii">
          24
        </DataArray>
      </Lines>
    </Piece>
  </PolyData>
</VTKFile>
