<?xml version="1.0"?>
<VTKFile type="PolyData" version="0.1" byte_order="LittleEndian">
  <PolyData>
    <Piece NumberOfPoints="24" NumberOfVerts="0" NumberOfLines="1" NumberOfStrips="0" NumberOfPolys="0">
      <Points>
        <DataArray type="Float64" NumberOfComponents="3" format="ascii">
          0.0 5.05688954e+00 0.0 1.0 4.20958656e+00 0.0 2.0 1.33574869e+01 0.0 3.0 9.76725010e+00 0.0 4.0 5.19642581e+00 0.0 5.0 5.20652490e+00 0.0 6.0 4.50312201e+00 0.0 7.0 4.16022956e+00 0.0 8.0 4.55683876e+00 0.0 9.0 4.42988051e+00 0.0 10.0 4.64626542e+00 0.0 11.0 5.21475853e+00 0.0 12.0 4.46244966e+00 0.0 13.0 4.06024752e+00 0.0 14.0 4.41304337e+00 0.0 15.0 3.96630101e+00 0.0 16.0 5.64909191e+00 0.0 17.0 4.79413860e+00 0.0 18.0 3.40424856e+00 0.0 19.0 3.96131562e+00 0.0 20.0 4.40959124e+00 0.0 21.0 1.08149087e+01 0.0 22.0 4.03628277e+00 0.0 23.0 1.10203066e+01 0.0 
        </DataArray>
      </Points>
      <PointData Scalars="Drift">
        <DataArray type="Float64" Name="Drift" format="ascii">
          5.05688954e+00 4.20958656e+00 1.33574869e+01 9.76725010e+00 5.19642581e+00 5.20652490e+00 4.50312201e+00 4.16022956e+00 4.55683876e+00 4.42988051e+00 4.64626542e+00 5.21475853e+00 4.46244966e+00 4.06024752e+00 4.41304337e+00 3.96630101e+00 5.64909191e+00 4.79413860e+00 3.40424856e+00 3.96131562e+00 4.40959124e+00 1.08149087e+01 4.03628277e+00 1.10203066e+01
        </DataArray>
      </PointData>
      <Lines>
        <DataArray type="Int32" Name="connectivity" format="ascii">
          0 1 2 3 4 5 6 7 8 9 10 11 12 13 14 15 16 17 18 19 20 21 22 23
        </DataArray>
        <DataArray type="Int32" Name="offsets" format="ascii">
          24
        </DataArray>
      </Lines>
    </Piece>
  </PolyData>
</VTKFile>
