<?xml version="1.0"?>
<VTKFile type="PolyData" version="0.1" byte_order="LittleEndian">
  <PolyData>
    <Piece NumberOfPoints="24" NumberOfVerts="0" NumberOfLines="1" NumberOfStrips="0" NumberOfPolys="0">
      <Points>
        <DataArray type="Float64" NumberOfComponents="3" format="ascii">
          0.0 5.27651295e+00 0.0 1.0 4.44800108e+00 0.0 2.0 9.00781283e+00 0.0 3.0 7.40780555e+00 0.0 4.0 5.12513785e+00 0.0 5.0 5.08124941e+00 0.0 6.0 4.51213947e+00 0.0 7.0 3.63147997e+00 0.0 8.0 3.68425323e+00 0.0 9.0 4.00002039e+00 0.0 10.0 3.84151031e+00 0.0 11.0 4.66526951e+00 0.0 12.0 3.85207778e+00 0.0 13.0 3.51857349e+00 0.0 14.0 3.73362884e+00 0.0 15.0 3.27570778e+00 0.0 16.0 4.38434731e+00 0.0 17.0 3.38157862e+00 0.0 18.0 2.58315340e+00 0.0 19.0 3.04146112e+00 0.0 20.0 3.43684372e+00 0.0 21.0 5.50617693e+00 0.0 22.0 3.20340794e+00 0.0 23.0 7.04195732e+00 0.0 
        </DataArray>
      </Points>
      <PointData Scalars="Drift">
        <DataArray type="Float64" Name="Drift" format="ascii">
          5.27651295e+00 4.44800108e+00 9.00781283e+00 7.40780555e+00 5.12513785e+00 5.08124941e+00 4.51213947e+00 3.63147997e+00 3.68425323e+00 4.00002039e+00 3.84151031e+00 4.66526951e+00 3.85207778e+00 3.51857349e+00 3.73362884e+00 3.27570778e+00 4.38434731e+00 3.38157862e+00 2.58315340e+00 3.04146112e+00 3.43684372e+00 5.50617693e+00 3.20340794e+00 7.04195732e+00
        </DataArray>
      </PointData>
      <Lines>
        <DataArray type="Int32" Name="connectivity" format="ascii">
          0 1 2 3 4 5 6 7 8 9 10 11 12 13 14 15 16 17 18 19 20 21 22 23
        </DataArray>
        <DataArray type="Int32" Name="offsets" format="ascii">
          24
        </DataArray>
      </Lines>
    </Piece>
  </PolyData>
</VTKFile>
