<?xml version="1.0"?>
<VTKFile type="PolyData" version="0.1" byte_order="LittleEndian">
  <PolyData>
    <Piece NumberOfPoints="24" NumberOfVerts="0" NumberOfLines="1" NumberOfStrips="0" NumberOfPolys="0">
      <Points>
        <DataArray type="Float64" NumberOfComponents="3" format="ascii">
          0.0 8.53552818e+00 0.0 1.0 7.27006399e+00 0.0 2.0 3.82967690e+01 0.0 3.0 2.88653414e+01 0.0 4.0 6.90109008e+00 0.0 5.0 7.03549848e+00 0.0 6.0 6.26237047e+00 0.0 7.0 5.69556291e+00 0.0 8.0 5.32880155e+00 0.0 9.0 5.31823863e+00 0.0 10.0 5.48126831e+00 0.0 11.0 5.83734077e+00 0.0 12.0 5.27884772e+00 0.0 13.0 4.73338440e+00 0.0 14.0 5.33951953e+00 0.0 15.0 4.71779095e+00 0.0 16.0 5.86403937e+00 0.0 17.0 4.43562261e+00 0.0 18.0 3.75613079e+00 0.0 19.0 4.15273362e+00 0.0 20.0 4.55028240e+00 0.0 21.0 3.98029069e+01 0.0 22.0 4.39682703e+00 0.0 23.0 8.77271259e+00 0.0 
        </DataArray>
      </Points>
      <PointData Scalars="Drift">
        <DataArray type="Float64" Name="Drift" format="ascii">
          8.53552818e+00 7.27006399e+00 3.82967690e+01 2.88653414e+01 6.90109008e+00 7.03549848e+00 6.26237047e+00 5.69556291e+00 5.32880155e+00 5.31823863e+00 5.48126831e+00 5.83734077e+00 5.27884772e+00 4.73338440e+00 5.33951953e+00 4.71779095e+00 5.86403937e+00 4.43562261e+00 3.75613079e+00 4.15273362e+00 4.55028240e+00 3.98029069e+01 4.39682703e+00 8.77271259e+00
        </DataArray>
      </PointData>
      <Lines>
        <DataArray type="Int32" Name="connectivity" format="ascii">
          0 1 2 3 4 5 6 7 8 9 10 11 12 13 14 15 16 17 18 19 20 21 22 23
        </DataArray>
        <DataArray type="Int32" Name="offsets" format="ascii">
          24
        </DataArray>
      </Lines>
    </Piece>
  </PolyData>
</VTKFile>
