<?xml version="1.0"?>
<VTKFile type="PolyData" version="0.1" byte_order="LittleEndian">
  <PolyData>
    <Piece NumberOfPoints="24" NumberOfVerts="0" NumberOfLines="1" NumberOfStrips="0" NumberOfPolys="0">
      <Points>
        <DataArray type="Float64" NumberOfComponents="3" format="ascii">
          0.0 1.04486500e+01 0.0 1.0 6.97526044e+00 0.0 2.0 1.74782451e+01 0.0 3.0 1.45515207e+01 0.0 4.0 7.05452366e+00 0.0 5.0 5.66225831e+00 0.0 6.0 4.78794093e+00 0.0 7.0 4.35456792e+00 0.0 8.0 4.15515034e+00 0.0 9.0 4.17659326e+00 0.0 10.0 3.96425202e+00 0.0 11.0 4.43408893e+00 0.0 12.0 3.68924181e+00 0.0 13.0 3.50735111e+00 0.0 14.0 3.75039761e+00 0.0 15.0 3.68216025e+00 0.0 16.0 4.94839293e+00 0.0 17.0 3.62007359e+00 0.0 18.0 3.09263417e+00 0.0 19.0 3.47849315e+00 0.0 20.0 4.14190220e+00 0.0 21.0 1.63369372e+01 0.0 22.0 4.08394134e+00 0.0 23.0 7.29680822e+00 0.0 
        </DataArray>
      </Points>
      <PointData Scalars="Drift">
        <DataArray type="Float64" Name="Drift" format="ascii">
          1.04486500e+01 6.97526044e+00 1.74782451e+01 1.45515207e+01 7.05452366e+00 5.66225831e+00 4.78794093e+00 4.35456792e+00 4.15515034e+00 4.17659326e+00 3.96425202e+00 4.43408893e+00 3.68924181e+00 3.50735111e+00 3.75039761e+00 3.68216025e+00 4.94839293e+00 3.62007359e+00 3.09263417e+00 3.47849315e+00 4.14190220e+00 1.63369372e+01 4.08394134e+00 7.29680822e+00
        </DataArray>
      </PointData>
      <Lines>
        <DataArray type="Int32" Name="connectivity" format="ascii">
          0 1 2 3 4 5 6 7 8 9 10 11 12 13 14 15 16 17 18 19 20 21 22 23
        </DataArray>
        <DataArray type="Int32" Name="offsets" format="ascii">
          24
        </DataArray>
      </Lines>
    </Piece>
  </PolyData>
</VTKFile>
