<?xml version="1.0"?>
<VTKFile type="PolyData" version="0.1" byte_order="LittleEndian">
  <PolyData>
    <Piece NumberOfPoints="24" NumberOfVerts="0" NumberOfLines="1" NumberOfStrips="0" NumberOfPolys="0">
      <Points>
        <DataArray type="Float64" NumberOfComponents="3" format="ascii">
          0.0 7.65397092e+00 0.0 1.0 6.04631090e+00 0.0 2.0 1.40663878e+01 0.0 3.0 1.13874016e+01 0.0 4.0 6.19611881e+00 0.0 5.0 5.30848210e+00 0.0 6.0 4.74242430e+00 0.0 7.0 3.81526225e+00 0.0 8.0 3.92507011e+00 0.0 9.0 4.20720548e+00 0.0 10.0 3.73355053e+00 0.0 11.0 4.02863494e+00 0.0 12.0 3.69085425e+00 0.0 13.0 3.59023474e+00 0.0 14.0 3.54243561e+00 0.0 15.0 3.58189335e+00 0.0 16.0 4.65194745e+00 0.0 17.0 3.11040115e+00 0.0 18.0 2.41902646e+00 0.0 19.0 3.08008960e+00 0.0 20.0 3.79936417e+00 0.0 21.0 1.37330400e+01 0.0 22.0 3.69455804e+00 0.0 23.0 8.97338466e+00 0.0 
        </DataArray>
      </Points>
      <PointData Scalars="Drift">
        <DataArray type="Float64" Name="Drift" format="ascii">
          7.65397092e+00 6.04631090e+00 1.40663878e+01 1.13874016e+01 6.19611881e+00 5.30848210e+00 4.74242430e+00 3.81526225e+00 3.92507011e+00 4.20720548e+00 3.73355053e+00 4.02863494e+00 3.69085425e+00 3.59023474e+00 3.54243561e+00 3.58189335e+00 4.65194745e+00 3.11040115e+00 2.41902646e+00 3.08008960e+00 3.79936417e+00 1.37330400e+01 3.69455804e+00 8.97338466e+00
        </DataArray>
      </PointData>
      <Lines>
        <DataArray type="Int32" Name="connectivity" format="ascii">
          0 1 2 3 4 5 6 7 8 9 10 11 12 13 14 15 16 17 18 19 20 21 22 23
        </DataArray>
        <DataArray type="Int32" Name="offsets" format="ascii">
          24
        </DataArray>
      </Lines>
    </Piece>
  </PolyData>
</VTKFile>
