<?xml version="1.0"?>
<VTKFile type="PolyData" version="0.1" byte_order="LittleEndian">
  <PolyData>
    <Piece NumberOfPoints="24" NumberOfVerts="0" NumberOfLines="1" NumberOfStrips="0" NumberOfPolys="0">
      <Points>
        <DataArray type="Float64" NumberOfComponents="3" format="ascii">
          0.0 7.34680424e+00 0.0 1.0 6.16796230e+00 0.0 2.0 1.93988346e+01 0.0 3.0 1.45219273e+01 0.0 4.0 6.77841463e+00 0.0 5.0 5.60992461e+00 0.0 6.0 4.85292423e+00 0.0 7.0 4.18993124e+00 0.0 8.0 4.32118850e+00 0.0 9.0 4.13837970e+00 0.0 10.0 4.01157643e+00 0.0 11.0 5.20041993e+00 0.0 12.0 3.77668429e+00 0.0 13.0 3.67854689e+00 0.0 14.0 3.66758351e+00 0.0 15.0 3.77761258e+00 0.0 16.0 4.50179416e+00 0.0 17.0 3.29009229e+00 0.0 18.0 2.63685122e+00 0.0 19.0 2.71467314e+00 0.0 20.0 2.92605087e+00 0.0 21.0 1.77890883e+01 0.0 22.0 2.68746217e+00 0.0 23.0 5.72329620e+00 0.0 
        </DataArray>
      </Points>
      <PointData Scalars="Drift">
        <DataArray type="Float64" Name="Drift" format="ascii">
          7.34680424e+00 6.16796230e+00 1.93988346e+01 1.45219273e+01 6.77841463e+00 5.60992461e+00 4.85292423e+00 4.18993124e+00 4.32118850e+00 4.13837970e+00 4.01157643e+00 5.20041993e+00 3.77668429e+00 3.67854689e+00 3.66758351e+00 3.77761258e+00 4.50179416e+00 3.29009229e+00 2.63685122e+00 2.71467314e+00 2.92605087e+00 1.77890883e+01 2.68746217e+00 5.72329620e+00
        </DataArray>
      </PointData>
      <Lines>
        <DataArray type="Int32" Name="connectivity" format="ascii">
          0 1 2 3 4 5 6 7 8 9 10 11 12 13 14 15 16 17 18 19 20 21 22 23
        </DataArray>
        <DataArray type="Int32" Name="offsets" format="ascii">
          24
        </DataArray>
      </Lines>
    </Piece>
  </PolyData>
</VTKFile>
