<?xml version="1.0"?>
<VTKFile type="PolyData" version="0.1" byte_order="LittleEndian">
  <PolyData>
    <Piece NumberOfPoints="24" NumberOfVerts="0" NumberOfLines="1" NumberOfStrips="0" NumberOfPolys="0">
      <Points>
        <DataArray type="Float64" NumberOfComponents="3" format="ascii">
          0.0 6.56467104e+00 0.0 1.0 4.35349058e+00 0.0 2.0 1.66720392e+01 0.0 3.0 1.30662364e+01 0.0 4.0 4.11238816e+00 0.0 5.0 3.78687822e+00 0.0 6.0 2.98872876e+00 0.0 7.0 2.67830778e+00 0.0 8.0 2.65298047e+00 0.0 9.0 2.78348446e+00 0.0 10.0 2.63382674e+00 0.0 11.0 2.91409686e+00 0.0 12.0 2.47729584e+00 0.0 13.0 2.50507235e+00 0.0 14.0 2.68754376e+00 0.0 15.0 2.54295860e+00 0.0 16.0 3.66419684e+00 0.0 17.0 2.68575650e+00 0.0 18.0 2.09090282e+00 0.0 19.0 2.46654199e+00 0.0 20.0 2.61524628e+00 0.0 21.0 1.69535300e+01 0.0 22.0 2.50267777e+00 0.0 23.0 6.17634543e+00 0.0 
        </DataArray>
      </Points>
      <PointData Scalars="Drift">
        <DataArray type="Float64" Name="Drift" format="ascii">
          6.56467104e+00 4.35349058e+00 1.66720392e+01 1.30662364e+01 4.11238816e+00 3.78687822e+00 2.98872876e+00 2.67830778e+00 2.65298047e+00 2.78348446e+00 2.63382674e+00 2.91409686e+00 2.47729584e+00 2.50507235e+00 2.68754376e+00 2.54295860e+00 3.66419684e+00 2.68575650e+00 2.09090282e+00 2.46654199e+00 2.61524628e+00 1.69535300e+01 2.50267777e+00 6.17634543e+00
        </DataArray>
      </PointData>
      <Lines>
        <DataArray type="Int32" Name="connectivity" format="ascii">
          0 1 2 3 4 5 6 7 8 9 10 11 12 13 14 15 16 17 18 19 20 21 22 23
        </DataArray>
        <DataArray type="Int32" Name="offsets" format="ascii">
          24
        </DataArray>
      </Lines>
    </Piece>
  </PolyData>
</VTKFile>
