<?xml version="1.0"?>
<VTKFile type="PolyData" version="0.1" byte_order="LittleEndian">
  <PolyData>
    <Piece NumberOfPoints="24" NumberOfVerts="0" NumberOfLines="1" NumberOfStrips="0" NumberOfPolys="0">
      <Points>
        <DataArray type="Float64" NumberOfComponents="3" format="ascii">
          0.0 9.75842193e+00 0.0 1.0 6.64370933e+00 0.0 2.0 2.17198031e+01 0.0 3.0 1.87229492e+01 0.0 4.0 6.41841458e+00 0.0 5.0 5.85904449e+00 0.0 6.0 5.13426810e+00 0.0 7.0 5.04352295e+00 0.0 8.0 4.88441743e+00 0.0 9.0 5.28200144e+00 0.0 10.0 4.85857286e+00 0.0 11.0 5.41221468e+00 0.0 12.0 4.92166229e+00 0.0 13.0 4.52899839e+00 0.0 14.0 4.38222475e+00 0.0 15.0 4.76660361e+00 0.0 16.0 5.34042636e+00 0.0 17.0 3.44962384e+00 0.0 18.0 4.12494321e+00 0.0 19.0 3.30585155e+00 0.0 20.0 4.04559668e+00 0.0 21.0 2.24470290e+01 0.0 22.0 3.94356356e+00 0.0 23.0 1.10440861e+01 0.0 
        </DataArray>
      </Points>
      <PointData Scalars="Drift">
        <DataArray type="Float64" Name="Drift" format="ascii">
          9.75842193e+00 6.64370933e+00 2.17198031e+01 1.87229492e+01 6.41841458e+00 5.85904449e+00 5.13426810e+00 5.04352295e+00 4.88441743e+00 5.28200144e+00 4.85857286e+00 5.41221468e+00 4.92166229e+00 4.52899839e+00 4.38222475e+00 4.76660361e+00 5.34042636e+00 3.44962384e+00 4.12494321e+00 3.30585155e+00 4.04559668e+00 2.24470290e+01 3.94356356e+00 1.10440861e+01
        </DataArray>
      </PointData>
      <Lines>
        <DataArray type="Int32" Name="connectivity" format="ascii">
          0 1 2 3 4 5 6 7 8 9 10 11 12 13 14 15 16 17 18 19 20 21 22 23
        </DataArray>
        <DataArray type="Int32" Name="offsets" format="ascii">
          24
        </DataArray>
      </Lines>
    </Piece>
  </PolyData>
</VTKFile>
