<?xml version="1.0"?>
<VTKFile type="PolyData" version="0.1" byte_order="LittleEndian">
  <PolyData>
    <Piece NumberOfPoints="24" NumberOfVerts="0" NumberOfLines="1" NumberOfStrips="0" NumberOfPolys="0">
      <Points>
        <DataArray type="Float64" NumberOfComponents="3" format="ascii">
          0.0 7.79110241e+00 0.0 1.0 6.71661268e+00 0.0 2.0 1.65276273e+01 0.0 3.0 1.43560937e+01 0.0 4.0 5.73114285e+00 0.0 5.0 5.05260873e+00 0.0 6.0 4.26153609e+00 0.0 7.0 3.77057314e+00 0.0 8.0 3.61713805e+00 0.0 9.0 3.56025591e+00 0.0 10.0 3.57592638e+00 0.0 11.0 3.86247027e+00 0.0 12.0 3.60005211e+00 0.0 13.0 3.34354044e+00 0.0 14.0 3.65527561e+00 0.0 15.0 3.31105209e+00 0.0 16.0 4.80092703e+00 0.0 17.0 3.68962039e+00 0.0 18.0 3.08927601e+00 0.0 19.0 3.55355089e+00 0.0 20.0 3.79953479e+00 0.0 21.0 1.68543991e+01 0.0 22.0 3.25782319e+00 0.0 23.0 6.71341357e+00 0.0 
        </DataArray>
      </Points>
      <PointData Scalars="Drift">
        <DataArray type="Float64" Name="Drift" format="ascii">
          7.79110241e+00 6.71661268e+00 1.65276273e+01 1.43560937e+01 5.73114285e+00 5.05260873e+00 4.26153609e+00 3.77057314e+00 3.61713805e+00 3.56025591e+00 3.57592638e+00 3.86247027e+00 3.60005211e+00 3.34354044e+00 3.65527561e+00 3.31105209e+00 4.80092703e+00 3.68962039e+00 3.08927601e+00 3.55355089e+00 3.79953479e+00 1.68543991e+01 3.25782319e+00 6.71341357e+00
        </DataArray>
      </PointData>
      <Lines>
        <DataArray type="Int32" Name="connectivity" format="ascii">
          0 1 2 3 4 5 6 7 8 9 10 11 12 13 14 15 16 17 18 19 20 21 22 23
        </DataArray>
        <DataArray type="Int32" Name="offsets" format="ascii">
          24
        </DataArray>
      </Lines>
    </Piece>
  </PolyData>
</VTKFile>
