<?xml version="1.0"?>
<VTKFile type="PolyData" version="0.1" byte_order="LittleEndian">
  <PolyData>
    <Piece NumberOfPoints="24" NumberOfVerts="0" NumberOfLines="1" NumberOfStrips="0" NumberOfPolys="0">
      <Points>
        <DataArray type="Float64" NumberOfComponents="3" format="ascii">
          0.0 7.98417405e+00 0.0 1.0 6.31353610e+00 0.0 2.0 1.55781232e+01 0.0 3.0 1.53761000e+01 0.0 4.0 5.59993864e+00 0.0 5.0 4.42106666e+00 0.0 6.0 3.81726429e+00 0.0 7.0 3.47174359e+00 0.0 8.0 3.41662438e+00 0.0 9.0 3.84381199e+00 0.0 10.0 3.53845203e+00 0.0 11.0 4.26914282e+00 0.0 12.0 3.61801992e+00 0.0 13.0 3.27305987e+00 0.0 14.0 3.47074433e+00 0.0 15.0 3.42673772e+00 0.0 16.0 4.64907965e+00 0.0 17.0 3.46639936e+00 0.0 18.0 2.76259536e+00 0.0 19.0 3.28053983e+00 0.0 20.0 3.61657052e+00 0.0 21.0 1.69400888e+01 0.0 22.0 3.18241142e+00 0.0 23.0 6.47161487e+00 0.0 
        </DataArray>
      </Points>
      <PointData Scalars="Drift">
        <DataArray type="Float64" Name="Drift" format="ascii">
          7.98417405e+00 6.31353610e+00 1.55781232e+01 1.53761000e+01 5.59993864e+00 4.42106666e+00 3.81726429e+00 3.47174359e+00 3.41662438e+00 3.84381199e+00 3.53845203e+00 4.26914282e+00 3.61801992e+00 3.27305987e+00 3.47074433e+00 3.42673772e+00 4.64907965e+00 3.46639936e+00 2.76259536e+00 3.28053983e+00 3.61657052e+00 1.69400888e+01 3.18241142e+00 6.47161487e+00
        </DataArray>
      </PointData>
      <Lines>
        <DataArray type="Int32" Name="connectivity" format="ascii">
          0 1 2 3 4 5 6 7 8 9 10 11 12 13 14 15 16 17 18 19 20 21 22 23
        </DataArray>
        <DataArray type="Int32" Name="offsets" format="ascii">
          24
        </DataArray>
      </Lines>
    </Piece>
  </PolyData>
</VTKFile>
