<?xml version="1.0"?>
<VTKFile type="PolyData" version="0.1" byte_order="LittleEndian">
  <PolyData>
    <Piece NumberOfPoints="24" NumberOfVerts="0" NumberOfLines="1" NumberOfStrips="0" NumberOfPolys="0">
      <Points>
        <DataArray type="Float64" NumberOfComponents="3" format="ascii">
          0.0 7.92727417e+00 0.0 1.0 7.35126854e+00 0.0 2.0 1.36414659e+01 0.0 3.0 1.19399977e+01 0.0 4.0 7.54213413e+00 0.0 5.0 6.81098153e+00 0.0 6.0 6.48325515e+00 0.0 7.0 6.22132144e+00 0.0 8.0 6.15985054e+00 0.0 9.0 6.56170495e+00 0.0 10.0 6.82853306e+00 0.0 11.0 7.24699307e+00 0.0 12.0 6.09286942e+00 0.0 13.0 5.20238033e+00 0.0 14.0 5.16017209e+00 0.0 15.0 4.71031562e+00 0.0 16.0 6.36881145e+00 0.0 17.0 4.81864041e+00 0.0 18.0 3.87198287e+00 0.0 19.0 4.15360539e+00 0.0 20.0 4.16038375e+00 0.0 21.0 9.61892905e+00 0.0 22.0 3.07426449e+00 0.0 23.0 6.76681895e+00 0.0 
        </DataArray>
      </Points>
      <PointData Scalars="Drift">
        <DataArray type="Float64" Name="Drift" format="ascii">
          7.92727417e+00 7.35126854e+00 1.36414659e+01 1.19399977e+01 7.54213413e+00 6.81098153e+00 6.48325515e+00 6.22132144e+00 6.15985054e+00 6.56170495e+00 6.82853306e+00 7.24699307e+00 6.09286942e+00 5.20238033e+00 5.16017209e+00 4.71031562e+00 6.36881145e+00 4.81864041e+00 3.87198287e+00 4.15360539e+00 4.16038375e+00 9.61892905e+00 3.07426449e+00 6.76681895e+00
        </DataArray>
      </PointData>
      <Lines>
        <DataArray type="Int32" Name="connectivity" format="ascii">
          0 1 2 3 4 5 6 7 8 9 10 11 12 13 14 15 16 17 18 19 20 21 22 23
        </DataArray>
        <DataArray type="Int32" Name="offsets" format="ascii">
          24
        </DataArray>
      </Lines>
    </Piece>
  </PolyData>
</VTKFile>
