<?xml version="1.0"?>
<VTKFile type="PolyData" version="0.1" byte_order="LittleEndian">
  <PolyData>
    <Piece NumberOfPoints="24" NumberOfVerts="0" NumberOfLines="1" NumberOfStrips="0" NumberOfPolys="0">
      <Points>
        <DataArray type="Float64" NumberOfComponents="3" format="ascii">
          0.0 8.61393912e+00 0.0 1.0 6.33848835e+00 0.0 2.0 1.58703867e+01 0.0 3.0 1.19120493e+01 0.0 4.0 5.57205738e+00 0.0 5.0 5.04347793e+00 0.0 6.0 4.60125437e+00 0.0 7.0 3.78813819e+00 0.0 8.0 3.72281967e+00 0.0 9.0 3.71375338e+00 0.0 10.0 3.57502151e+00 0.0 11.0 4.16299949e+00 0.0 12.0 3.59879489e+00 0.0 13.0 3.29372879e+00 0.0 14.0 3.51248500e+00 0.0 15.0 3.19936007e+00 0.0 16.0 4.38508155e+00 0.0 17.0 3.13125387e+00 0.0 18.0 2.74283923e+00 0.0 19.0 3.19075113e+00 0.0 20.0 3.82676579e+00 0.0 21.0 1.50481735e+01 0.0 22.0 3.55685656e+00 0.0 23.0 6.63086838e+00 0.0 
        </DataArray>
      </Points>
      <PointData Scalars="Drift">
        <DataArray type="Float64" Name="Drift" format="ascii">
          8.61393912e+00 6.33848835e+00 1.58703867e+01 1.19120493e+01 5.57205738e+00 5.04347793e+00 4.60125437e+00 3.78813819e+00 3.72281967e+00 3.71375338e+00 3.57502151e+00 4.16299949e+00 3.59879489e+00 3.29372879e+00 3.51248500e+00 3.19936007e+00 4.38508155e+00 3.13125387e+00 2.74283923e+00 3.19075113e+00 3.82676579e+00 1.50481735e+01 3.55685656e+00 6.63086838e+00
        </DataArray>
      </PointData>
      <Lines>
        <DataArray type="Int32" Name="connectivity" format="ascii">
          0 1 2 3 4 5 6 7 8 9 10 11 12 13 14 15 16 17 18 19 20 21 22 23
        </DataArray>
        <DataArray type="Int32" Name="offsets" format="ascii">
          24
        </DataArray>
      </Lines>
    </Piece>
  </PolyData>
</VTKFile>
