<?xml version="1.0"?>
<VTKFile type="PolyData" version="0.1" byte_order="LittleEndian">
  <PolyData>
    <Piece NumberOfPoints="24" NumberOfVerts="0" NumberOfLines="1" NumberOfStrips="0" NumberOfPolys="0">
      <Points>
        <DataArray type="Float64" NumberOfComponents="3" format="ascii">
          0.0 8.86365896e+00 0.0 1.0 7.35769112e+00 0.0 2.0 1.61583030e+01 0.0 3.0 1.42725937e+01 0.0 4.0 7.63538097e+00 0.0 5.0 6.04922889e+00 0.0 6.0 4.96020802e+00 0.0 7.0 4.47235074e+00 0.0 8.0 4.75372777e+00 0.0 9.0 4.82233784e+00 0.0 10.0 4.59638774e+00 0.0 11.0 5.12131227e+00 0.0 12.0 4.51197474e+00 0.0 13.0 4.19048361e+00 0.0 14.0 3.83728196e+00 0.0 15.0 3.85248929e+00 0.0 16.0 4.54540145e+00 0.0 17.0 3.35188539e+00 0.0 18.0 2.77524828e+00 0.0 19.0 3.22449710e+00 0.0 20.0 3.40586128e+00 0.0 21.0 1.46178640e+01 0.0 22.0 3.35850039e+00 0.0 23.0 8.26443987e+00 0.0 
        </DataArray>
      </Points>
      <PointData Scalars="Drift">
        <DataArray type="Float64" Name="Drift" format="ascii">
          8.86365896e+00 7.35769112e+00 1.61583030e+01 1.42725937e+01 7.63538097e+00 6.04922889e+00 4.96020802e+00 4.47235074e+00 4.75372777e+00 4.82233784e+00 4.59638774e+00 5.12131227e+00 4.51197474e+00 4.19048361e+00 3.83728196e+00 3.85248929e+00 4.54540145e+00 3.35188539e+00 2.77524828e+00 3.22449710e+00 3.40586128e+00 1.46178640e+01 3.35850039e+00 8.26443987e+00
        </DataArray>
      </PointData>
      <Lines>
        <DataArray type="Int32" Name="connectivity" format="ascii">
          0 1 2 3 4 5 6 7 8 9 10 11 12 13 14 15 16 17 18 19 20 21 22 23
        </DataArray>
        <DataArray type="Int32" Name="offsets" format="ascii">
          24
        </DataArray>
      </Lines>
    </Piece>
  </PolyData>
</VTKFile>
