<?xml version="1.0"?>
<VTKFile type="PolyData" version="0.1" byte_order="LittleEndian">
  <PolyData>
    <Piece NumberOfPoints="24" NumberOfVerts="0" NumberOfLines="1" NumberOfStrips="0" NumberOfPolys="0">
      <Points>
        <DataArray type="Float64" NumberOfComponents="3" format="ascii">
          0.0 8.02053565e+00 0.0 1.0 6.24864350e+00 0.0 2.0 1.80425179e+01 0.0 3.0 1.37938982e+01 0.0 4.0 6.80897310e+00 0.0 5.0 5.85819283e+00 0.0 6.0 4.96109109e+00 0.0 7.0 4.79462047e+00 0.0 8.0 4.71780656e+00 0.0 9.0 4.82417677e+00 0.0 10.0 4.52362320e+00 0.0 11.0 5.52110791e+00 0.0 12.0 4.84368786e+00 0.0 13.0 4.11205504e+00 0.0 14.0 4.04800769e+00 0.0 15.0 3.95395635e+00 0.0 16.0 5.45225373e+00 0.0 17.0 3.67202219e+00 0.0 18.0 2.88477307e+00 0.0 19.0 3.39464467e+00 0.0 20.0 3.83152166e+00 0.0 21.0 1.66112672e+01 0.0 22.0 3.87988286e+00 0.0 23.0 8.24760218e+00 0.0 
        </DataArray>
      </Points>
      <PointData Scalars="Drift">
        <DataArray type="Float64" Name="Drift" format="ascii">
          8.02053565e+00 6.24864350e+00 1.80425179e+01 1.37938982e+01 6.80897310e+00 5.85819283e+00 4.96109109e+00 4.79462047e+00 4.71780656e+00 4.82417677e+00 4.52362320e+00 5.52110791e+00 4.84368786e+00 4.11205504e+00 4.04800769e+00 3.95395635e+00 5.45225373e+00 3.67202219e+00 2.88477307e+00 3.39464467e+00 3.83152166e+00 1.66112672e+01 3.87988286e+00 8.24760218e+00
        </DataArray>
      </PointData>
      <Lines>
        <DataArray type="Int32" Name="connectivity" format="ascii">
          0 1 2 3 4 5 6 7 8 9 10 11 12 13 14 15 16 17 18 19 20 21 22 23
        </DataArray>
        <DataArray type="Int32" Name="offsets" format="ascii">
          24
        </DataArray>
      </Lines>
    </Piece>
  </PolyData>
</VTKFile>
