<?xml version="1.0"?>
<VTKFile type="PolyData" version="0.1" byte_order="LittleEndian">
  <PolyData>
    <Piece NumberOfPoints="24" NumberOfVerts="0" NumberOfLines="1" NumberOfStrips="0" NumberOfPolys="0">
      <Points>
        <DataArray type="Float64" NumberOfComponents="3" format="ascii">
          0.0 8.41929797e+00 0.0 1.0 7.10048272e+00 0.0 2.0 1.49593609e+01 0.0 3.0 1.15106283e+01 0.0 4.0 6.06248870e+00 0.0 5.0 5.04203028e+00 0.0 6.0 4.31408887e+00 0.0 7.0 3.64701449e+00 0.0 8.0 4.22534655e+00 0.0 9.0 4.17414470e+00 0.0 10.0 3.35546723e+00 0.0 11.0 3.94374766e+00 0.0 12.0 3.23621648e+00 0.0 13.0 3.15544429e+00 0.0 14.0 2.99076131e+00 0.0 15.0 3.46839105e+00 0.0 16.0 3.98461528e+00 0.0 17.0 2.88373674e+00 0.0 18.0 2.30842965e+00 0.0 19.0 2.83846350e+00 0.0 20.0 3.39056141e+00 0.0 21.0 1.37458832e+01 0.0 22.0 3.81816588e+00 0.0 23.0 6.17241384e+00 0.0 
        </DataArray>
      </Points>
      <PointData Scalars="Drift">
        <DataArray type="Float64" Name="Drift" format="ascii">
          8.41929797e+00 7.10048272e+00 1.49593609e+01 1.15106283e+01 6.06248870e+00 5.04203028e+00 4.31408887e+00 3.64701449e+00 4.22534655e+00 4.17414470e+00 3.35546723e+00 3.94374766e+00 3.23621648e+00 3.15544429e+00 2.99076131e+00 3.46839105e+00 3.98461528e+00 2.88373674e+00 2.30842965e+00 2.83846350e+00 3.39056141e+00 1.37458832e+01 3.81816588e+00 6.17241384e+00
        </DataArray>
      </PointData>
      <Lines>
        <DataArray type="Int32" Name="connectivity" format="ascii">
          0 1 2 3 4 5 6 7 8 9 10 11 12 13 14 15 16 17 18 19 20 21 22 23
        </DataArray>
        <DataArray type="Int32" Name="offsets" format="ascii">
          24
        </DataArray>
      </Lines>
    </Piece>
  </PolyData>
</VTKFile>
