<?xml version="1.0"?>
<VTKFile type="PolyData" version="0.1" byte_order="LittleEndian">
  <PolyData>
    <Piece NumberOfPoints="24" NumberOfVerts="0" NumberOfLines="1" NumberOfStrips="0" NumberOfPolys="0">
      <Points>
        <DataArray type="Float64" NumberOfComponents="3" format="ascii">
          0.0 7.17790690e+00 0.0 1.0 5.81172347e+00 0.0 2.0 1.61759962e+01 0.0 3.0 1.21399953e+01 0.0 4.0 5.90989729e+00 0.0 5.0 5.32333036e+00 0.0 6.0 4.88395642e+00 0.0 7.0 4.49108939e+00 0.0 8.0 4.50090443e+00 0.0 9.0 4.68079501e+00 0.0 10.0 4.51050784e+00 0.0 11.0 5.09576244e+00 0.0 12.0 4.23789925e+00 0.0 13.0 4.03534126e+00 0.0 14.0 4.00726211e+00 0.0 15.0 3.92386015e+00 0.0 16.0 4.96863229e+00 0.0 17.0 3.71934483e+00 0.0 18.0 2.93913854e+00 0.0 19.0 3.24313046e+00 0.0 20.0 3.27566840e+00 0.0 21.0 1.39841772e+01 0.0 22.0 3.13777581e+00 0.0 23.0 8.11004505e+00 0.0 
        </DataArray>
      </Points>
      <PointData Scalars="Drift">
        <DataArray type="Float64" Name="Drift" format="ascii">
          7.17790690e+00 5.81172347e+00 1.61759962e+01 1.21399953e+01 5.90989729e+00 5.32333036e+00 4.88395642e+00 4.49108939e+00 4.50090443e+00 4.68079501e+00 4.51050784e+00 5.09576244e+00 4.23789925e+00 4.03534126e+00 4.00726211e+00 3.92386015e+00 4.96863229e+00 3.71934483e+00 2.93913854e+00 3.24313046e+00 3.27566840e+00 1.39841772e+01 3.13777581e+00 8.11004505e+00
        </DataArray>
      </PointData>
      <Lines>
        <DataArray type="Int32" Name="connectivity" format="ascii">
          0 1 2 3 4 5 6 7 8 9 10 11 12 13 14 15 16 17 18 19 20 21 22 23
        </DataArray>
        <DataArray type="Int32" Name="offsets" format="ascii">
          24
        </DataArray>
      </Lines>
    </Piece>
  </PolyData>
</VTKFile>
