<?xml version="1.0"?>
<VTKFile type="PolyData" version="0.1" byte_order="LittleEndian">
  <PolyData>
    <Piece NumberOfPoints="24" NumberOfVerts="0" NumberOfLines="1" NumberOfStrips="0" NumberOfPolys="0">
      <Points>
        <DataArray type="Float64" NumberOfComponents="3" format="ascii">
          0.0 8.66594212e+00 0.0 1.0 7.43216757e+00 0.0 2.0 1.49524929e+01 0.0 3.0 1.49900492e+01 0.0 4.0 5.78811023e+00 0.0 5.0 4.88511965e+00 0.0 6.0 4.15905324e+00 0.0 7.0 3.41716488e+00 0.0 8.0 3.41463664e+00 0.0 9.0 3.54546773e+00 0.0 10.0 3.53863653e+00 0.0 11.0 4.03768951e+00 0.0 12.0 3.84462669e+00 0.0 13.0 3.23137146e+00 0.0 14.0 3.47884481e+00 0.0 15.0 3.07033413e+00 0.0 16.0 3.79282631e+00 0.0 17.0 3.05521633e+00 0.0 18.0 2.59278484e+00 0.0 19.0 2.97222621e+00 0.0 20.0 3.43402849e+00 0.0 21.0 1.59802775e+01 0.0 22.0 3.13057657e+00 0.0 23.0 6.59143322e+00 0.0 
        </DataArray>
      </Points>
      <PointData Scalars="Drift">
        <DataArray type="Float64" Name="Drift" format="ascii">
          8.66594212e+00 7.43216757e+00 1.49524929e+01 1.49900492e+01 5.78811023e+00 4.88511965e+00 4.15905324e+00 3.41716488e+00 3.41463664e+00 3.54546773e+00 3.53863653e+00 4.03768951e+00 3.84462669e+00 3.23137146e+00 3.47884481e+00 3.07033413e+00 3.79282631e+00 3.05521633e+00 2.59278484e+00 2.97222621e+00 3.43402849e+00 1.59802775e+01 3.13057657e+00 6.59143322e+00
        </DataArray>
      </PointData>
      <Lines>
        <DataArray type="Int32" Name="connectivity" format="ascii">
          0 1 2 3 4 5 6 7 8 9 10 11 12 13 14 15 16 17 18 19 20 21 22 23
        </DataArray>
        <DataArray type="Int32" Name="offsets" format="ascii">
          24
        </DataArray>
      </Lines>
    </Piece>
  </PolyData>
</VTKFile>
